<svg width="60" height="60" viewBox="0 0 60 60" fill="none" xmlns="http://www.w3.org/2000/svg">
<g clip-path="url(#clip0_487_2)">
<path d="M51.2132 8.78672C45.5469 3.12047 38.0134 0 30 0C21.9866 0 14.4531 3.12047 8.78695 8.78672C3.12047 14.4531 0 21.9867 0 30C0 38.0133 3.12047 45.5469 8.78695 51.2133C14.4531 56.8795 21.9866 60 30 60C38.0134 60 45.5469 56.8795 51.2132 51.2133C56.8795 45.5469 60 38.0133 60 30C60 21.9867 56.8795 14.4531 51.2132 8.78672ZM30 57.6096C14.7761 57.6096 2.39039 45.2241 2.39039 30C2.39039 14.7759 14.7761 2.39039 30 2.39039C45.2239 2.39039 57.6096 14.7761 57.6096 30C57.6096 45.2239 45.2239 57.6096 30 57.6096Z" fill="#BFF300"/>
<path d="M48.3893 11.6603C47.1251 10.396 45.4443 9.69983 43.6565 9.69983C41.8685 9.69983 40.1878 10.396 38.9235 11.6603C36.3138 14.2699 36.3138 18.5163 38.9235 21.1259C40.1877 22.3901 41.8685 23.0864 43.6565 23.0864C45.4443 23.0864 47.1251 22.3901 48.3893 21.1259C49.6536 19.8617 50.3498 18.1809 50.3498 16.3931C50.3498 14.6053 49.6536 12.9245 48.3893 11.6603ZM46.6989 19.4356C45.8863 20.2482 44.8056 20.6959 43.6565 20.6959C42.5071 20.6959 41.4265 20.2482 40.6139 19.4356C38.9363 17.7579 38.9363 15.0281 40.6139 13.3506C41.4265 12.5379 42.5072 12.0903 43.6565 12.0903C44.8057 12.0903 45.8863 12.538 46.6989 13.3506C47.5116 14.1631 47.9593 15.2438 47.9593 16.3931C47.9593 17.5423 47.5117 18.6229 46.6989 19.4356Z" fill="#BFF300"/>
<path d="M49.2429 23.4263C45.5523 23.4263 42.5497 26.4288 42.5497 30.1195C42.5497 33.8102 45.5521 36.8128 49.2429 36.8128C52.9336 36.8128 55.9362 33.8102 55.9362 30.1195C55.9362 26.429 52.9336 23.4263 49.2429 23.4263ZM49.2429 34.4223C46.8704 34.4223 44.9402 32.4921 44.9402 30.1195C44.9402 27.747 46.8704 25.8168 49.2429 25.8168C51.6155 25.8168 53.5457 27.747 53.5457 30.1195C53.5457 32.4921 51.6156 34.4223 49.2429 34.4223Z" fill="#BFF300"/>
<path d="M20.8375 38.874C19.5733 37.6097 17.8924 36.9135 16.1045 36.9135C14.3167 36.9135 12.6359 37.6097 11.3716 38.8739C10.1074 40.1381 9.41119 41.8189 9.41119 43.6067C9.41119 45.3946 10.1074 47.0754 11.3716 48.3396C12.6764 49.6444 14.3905 50.2968 16.1045 50.2968C17.8186 50.2968 19.5326 49.6444 20.8375 48.3396C23.4471 45.7299 23.4471 41.4837 20.8375 38.874ZM19.1471 46.6493C18.3345 47.462 17.2538 47.9095 16.1045 47.9095C14.9552 47.9095 13.8746 47.4619 13.0621 46.6493C12.2494 45.8367 11.8017 44.756 11.8017 43.6067C11.8017 42.4575 12.2494 41.3769 13.0621 40.5642C13.8746 39.7516 14.9554 39.304 16.1045 39.304C17.2539 39.304 18.3345 39.7516 19.1471 40.5642C20.8247 42.2419 20.8247 44.9716 19.1471 46.6493Z" fill="#BFF300"/>
<path d="M10.5179 23.1874C6.82722 23.1874 3.82465 26.1899 3.82465 29.8806C3.82465 33.5713 6.8271 36.5739 10.5179 36.5739C14.2087 36.5739 17.2112 33.5713 17.2112 29.8806C17.2112 26.1899 14.2086 23.1874 10.5179 23.1874ZM10.5179 34.1833C8.14534 34.1833 6.21515 32.2531 6.21515 29.8805C6.21515 27.508 8.14534 25.5778 10.5179 25.5778C12.8905 25.5778 14.8207 27.508 14.8207 29.8805C14.8207 32.2531 12.8905 34.1833 10.5179 34.1833Z" fill="#BFF300"/>
<path d="M29.9999 3.94421C26.3092 3.94421 23.3066 6.94678 23.3066 10.6375C23.3066 14.3282 26.3091 17.3307 29.9999 17.3307C33.6907 17.3307 36.6932 14.3282 36.6932 10.6375C36.6932 6.94678 33.6906 3.94421 29.9999 3.94421ZM29.9999 14.9402C27.6273 14.9402 25.6971 13.0101 25.6971 10.6375C25.6971 8.26491 27.6273 6.33472 29.9999 6.33472C32.3725 6.33472 34.3027 8.26491 34.3027 10.6375C34.3027 13.0101 32.3725 14.9402 29.9999 14.9402Z" fill="#BFF300"/>
<path d="M48.2204 39.0429C46.956 37.7788 45.2753 37.0826 43.4875 37.0826C41.6996 37.0826 40.0189 37.7789 38.7545 39.0431C36.1449 41.6527 36.1449 45.899 38.7545 48.5086C40.0188 49.7728 41.6996 50.469 43.4875 50.469C45.2753 50.469 46.9562 49.7728 48.2204 48.5086C49.4846 47.2444 50.1807 45.5636 50.1807 43.7758C50.1807 41.988 49.4845 40.3072 48.2204 39.0429ZM46.5299 46.8184C45.7174 47.6311 44.6367 48.0787 43.4875 48.0787C42.3381 48.0787 41.2576 47.631 40.445 46.8184C38.7673 45.1408 38.7673 42.411 40.445 40.7334C41.2576 39.9208 42.3383 39.4731 43.4875 39.4731C44.6368 39.4731 45.7174 39.9208 46.5299 40.7334C47.3426 41.5459 47.7902 42.6265 47.7902 43.7759C47.7902 44.9254 47.3426 46.0059 46.5299 46.8184Z" fill="#BFF300"/>
<path d="M29.761 42.6692C26.0703 42.6692 23.0677 45.6718 23.0677 49.3625C23.0677 53.0531 26.0701 56.0557 29.761 56.0557C33.4516 56.0557 36.4542 53.0531 36.4542 49.3625C36.4542 45.6718 33.4516 42.6692 29.761 42.6692ZM29.761 53.6651C27.3884 53.6651 25.4582 51.7349 25.4582 49.3623C25.4582 46.9898 27.3884 45.0596 29.761 45.0596C32.1335 45.0596 34.0637 46.9898 34.0637 49.3623C34.0637 51.7349 32.1336 53.6651 29.761 53.6651Z" fill="#BFF300"/>
<path d="M21.0065 11.4912C19.7422 10.227 18.0614 9.53076 16.2735 9.53076C14.4857 9.53076 12.8049 10.227 11.5407 11.4912C8.93102 14.1009 8.93102 18.3472 11.5407 20.9569C12.8455 22.2618 14.5595 22.9142 16.2735 22.9142C17.9876 22.9142 19.7016 22.2618 21.0065 20.9569C23.6161 18.3473 23.6161 14.101 21.0065 11.4912ZM19.316 19.2668C17.6386 20.9445 14.909 20.9447 13.2311 19.2668C11.5534 17.5889 11.5534 14.8592 13.2311 13.1816C14.07 12.3427 15.1715 11.9234 16.2736 11.9234C17.3753 11.9234 18.4773 12.3429 19.316 13.1816C20.9937 14.8594 20.9937 17.5892 19.316 19.2668Z" fill="#BFF300"/>
<path d="M30 18.6455C23.7391 18.6455 18.6454 23.7392 18.6454 30.0001C18.6454 36.261 23.7391 41.3546 30 41.3546C36.261 41.3546 41.3545 36.2609 41.3545 30.0001C41.3545 23.7392 36.261 18.6455 30 18.6455ZM30 38.9642C25.0571 38.9642 21.0358 34.9429 21.0358 30.0001C21.0358 25.0572 25.0571 21.0359 30 21.0359C34.9429 21.0359 38.9641 25.0572 38.9641 30.0001C38.9641 34.9429 34.9429 38.9642 30 38.9642Z" fill="#BFF300"/>
<path d="M29.9999 22.9482C26.1115 22.9482 22.9482 26.1116 22.9482 30C22.9482 33.8884 26.1115 37.0517 29.9999 37.0517C33.8883 37.0517 37.0517 33.8884 37.0517 30C37.0517 26.1116 33.8883 22.9482 29.9999 22.9482ZM29.9999 34.6614C27.4297 34.6614 25.3386 32.5703 25.3386 30C25.3386 27.4297 27.4295 25.3386 29.9999 25.3386C32.5703 25.3386 34.6613 27.4297 34.6613 30C34.6613 32.5703 32.5702 34.6614 29.9999 34.6614Z" fill="#BFF300"/>
</g>
<defs>
<clipPath id="clip0_487_2">
<rect width="60" height="60" fill="white"/>
</clipPath>
</defs>
</svg>
