<svg width="35" height="35" viewBox="0 0 35 35" fill="none" xmlns="http://www.w3.org/2000/svg">
<g clip-path="url(#clip0_487_2)">
<path d="M29.8743 5.12559C26.569 1.82027 22.1745 0 17.5 0C12.8255 0 8.43097 1.82027 5.12572 5.12559C1.82027 8.43097 0 12.8256 0 17.5C0 22.1744 1.82027 26.569 5.12572 29.8744C8.43097 33.1797 12.8255 35 17.5 35C22.1745 35 26.569 33.1797 29.8743 29.8744C33.1797 26.569 35 22.1744 35 17.5C35 12.8256 33.1797 8.43097 29.8743 5.12559ZM17.5 33.6056C8.61937 33.6056 1.39439 26.3807 1.39439 17.5C1.39439 8.6193 8.61937 1.39439 17.5 1.39439C26.3806 1.39439 33.6056 8.61937 33.6056 17.5C33.6056 26.3806 26.3806 33.6056 17.5 33.6056Z" fill="#BFF300"/>
<path d="M28.2271 6.80178C27.4897 6.06432 26.5092 5.6582 25.4663 5.6582C24.4233 5.6582 23.4429 6.06432 22.7054 6.80178C21.1831 8.32407 21.1831 10.8011 22.7054 12.3234C23.4428 13.0609 24.4233 13.467 25.4663 13.467C26.5092 13.467 27.4897 13.0609 28.2271 12.3234C28.9646 11.586 29.3707 10.6055 29.3707 9.56261C29.3707 8.51972 28.9646 7.53924 28.2271 6.80178ZM27.2411 11.3374C26.767 11.8114 26.1366 12.0726 25.4663 12.0726C24.7958 12.0726 24.1655 11.8114 23.6915 11.3374C22.7128 10.3587 22.7128 8.76636 23.6915 7.7878C24.1655 7.31373 24.7959 7.05266 25.4663 7.05266C26.1367 7.05266 26.767 7.31379 27.2411 7.7878C27.7151 8.2618 27.9763 8.89221 27.9763 9.56261C27.9763 10.233 27.7152 10.8633 27.2411 11.3374Z" fill="#BFF300"/>
<path d="M28.7251 13.6653C26.5722 13.6653 24.8207 15.4168 24.8207 17.5697C24.8207 19.7226 26.5721 21.4741 28.7251 21.4741C30.878 21.4741 32.6295 19.7226 32.6295 17.5697C32.6295 15.4168 30.878 13.6653 28.7251 13.6653ZM28.7251 20.0796C27.3411 20.0796 26.2151 18.9537 26.2151 17.5697C26.2151 16.1857 27.3411 15.0597 28.7251 15.0597C30.1091 15.0597 31.235 16.1857 31.235 17.5697C31.235 18.9537 30.1092 20.0796 28.7251 20.0796Z" fill="#BFF300"/>
<path d="M12.1552 22.6765C11.4177 21.939 10.4373 21.5328 9.3943 21.5328C8.35141 21.5328 7.37092 21.939 6.63346 22.6764C5.89599 23.4139 5.48987 24.3944 5.48987 25.4373C5.48987 26.4802 5.89599 27.4606 6.63346 28.1981C7.39457 28.9592 8.39447 29.3398 9.3943 29.3398C10.3942 29.3398 11.394 28.9592 12.1552 28.1981C13.6775 26.6758 13.6775 24.1988 12.1552 22.6765ZM11.1691 27.2121C10.6951 27.6861 10.0647 27.9472 9.3943 27.9472C8.7239 27.9472 8.09355 27.6861 7.61955 27.2121C7.14547 26.7381 6.88434 26.1077 6.88434 25.4373C6.88434 24.7669 7.14547 24.1365 7.61955 23.6624C8.09355 23.1884 8.72397 22.9273 9.3943 22.9273C10.0648 22.9273 10.6951 23.1884 11.1691 23.6624C12.1478 24.6411 12.1478 26.2334 11.1691 27.2121Z" fill="#BFF300"/>
<path d="M6.13548 13.526C3.98258 13.526 2.23108 15.2775 2.23108 17.4304C2.23108 19.5833 3.98251 21.3348 6.13548 21.3348C8.28846 21.3348 10.0399 19.5833 10.0399 17.4304C10.0399 15.2775 8.28839 13.526 6.13548 13.526ZM6.13548 19.9403C4.75148 19.9403 3.62554 18.8143 3.62554 17.4303C3.62554 16.0463 4.75148 14.9204 6.13548 14.9204C7.51948 14.9204 8.64543 16.0463 8.64543 17.4303C8.64543 18.8143 7.51948 19.9403 6.13548 19.9403Z" fill="#BFF300"/>
<path d="M17.4999 2.30078C15.347 2.30078 13.5955 4.05228 13.5955 6.20518C13.5955 8.35809 15.347 10.1096 17.4999 10.1096C19.6529 10.1096 21.4043 8.35809 21.4043 6.20518C21.4043 4.05228 19.6528 2.30078 17.4999 2.30078ZM17.4999 8.71513C16.1159 8.71513 14.99 7.58918 14.99 6.20518C14.99 4.82118 16.1159 3.69524 17.4999 3.69524C18.8839 3.69524 20.0099 4.82118 20.0099 6.20518C20.0099 7.58918 18.8839 8.71513 17.4999 8.71513Z" fill="#BFF300"/>
<path d="M28.1285 22.7751C27.391 22.0377 26.4106 21.6316 25.3677 21.6316C24.3248 21.6316 23.3443 22.0377 22.6068 22.7752C21.0845 24.2975 21.0845 26.7745 22.6068 28.2967C23.3443 29.0342 24.3248 29.4403 25.3677 29.4403C26.4106 29.4403 27.3911 29.0342 28.1285 28.2967C28.866 27.5593 29.2721 26.5788 29.2721 25.5359C29.2721 24.493 28.8659 23.5126 28.1285 22.7751ZM27.1425 27.3108C26.6685 27.7849 26.038 28.0459 25.3677 28.0459C24.6972 28.0459 24.0669 27.7848 23.5929 27.3108C22.6143 26.3322 22.6143 24.7398 23.5929 23.7612C24.0669 23.2872 24.6973 23.0261 25.3677 23.0261C26.0381 23.0261 26.6685 23.2872 27.1425 23.7612C27.6165 24.2352 27.8776 24.8655 27.8776 25.536C27.8776 26.2065 27.6165 26.8368 27.1425 27.3108Z" fill="#BFF300"/>
<path d="M17.3606 24.8904C15.2077 24.8904 13.4562 26.6419 13.4562 28.7948C13.4562 30.9477 15.2076 32.6992 17.3606 32.6992C19.5135 32.6992 21.265 30.9477 21.265 28.7948C21.265 26.6419 19.5135 24.8904 17.3606 24.8904ZM17.3606 31.3047C15.9766 31.3047 14.8506 30.1787 14.8506 28.7947C14.8506 27.4107 15.9766 26.2848 17.3606 26.2848C18.7446 26.2848 19.8705 27.4107 19.8705 28.7947C19.8705 30.1787 18.7446 31.3047 17.3606 31.3047Z" fill="#BFF300"/>
<path d="M12.2538 6.70316C11.5163 5.96569 10.5358 5.55957 9.49287 5.55957C8.44999 5.55957 7.46951 5.96569 6.73205 6.70316C5.20976 8.22546 5.20976 10.7025 6.73205 12.2248C7.49323 12.986 8.49305 13.3666 9.49287 13.3666C10.4928 13.3666 11.4926 12.986 12.2538 12.2248C13.7761 10.7025 13.7761 8.22552 12.2538 6.70316ZM11.2677 11.239C10.2892 12.2176 8.6969 12.2177 7.71813 11.239C6.7395 10.2602 6.7395 8.66781 7.71813 7.68924C8.20752 7.19986 8.85002 6.95527 9.49294 6.95527C10.1356 6.95527 10.7784 7.19999 11.2677 7.68924C12.2463 8.66795 12.2463 10.2603 11.2677 11.239Z" fill="#BFF300"/>
<path d="M17.5 10.8765C13.8478 10.8765 10.8765 13.8478 10.8765 17.5C10.8765 21.1522 13.8478 24.1234 17.5 24.1234C21.1523 24.1234 24.1235 21.1521 24.1235 17.5C24.1235 13.8478 21.1523 10.8765 17.5 10.8765ZM17.5 22.729C14.6167 22.729 12.2709 20.3833 12.2709 17.5C12.2709 14.6166 14.6167 12.2709 17.5 12.2709C20.3834 12.2709 22.7291 14.6166 22.7291 17.5C22.7291 20.3833 20.3834 22.729 17.5 22.729Z" fill="#BFF300"/>
<path d="M17.5 13.3865C15.2318 13.3865 13.3865 15.2318 13.3865 17.5C13.3865 19.7682 15.2318 21.6135 17.5 21.6135C19.7682 21.6135 21.6135 19.7682 21.6135 17.5C21.6135 15.2318 19.7682 13.3865 17.5 13.3865ZM17.5 20.2191C16.0007 20.2191 14.7809 18.9993 14.7809 17.5C14.7809 16.0007 16.0006 14.7809 17.5 14.7809C18.9994 14.7809 20.2191 16.0007 20.2191 17.5C20.2191 18.9993 18.9993 20.2191 17.5 20.2191Z" fill="#BFF300"/>
</g>
<defs>
<clipPath id="clip0_487_2">
<rect width="35" height="35" fill="white"/>
</clipPath>
</defs>
</svg>
