<svg width="60" height="60" viewBox="0 0 60 60" fill="none" xmlns="http://www.w3.org/2000/svg">
<path fill-rule="evenodd" clip-rule="evenodd" d="M60 30C60 46.5684 46.5684 60 30 60C13.4314 60 0 46.5684 0 30C0 13.4314 13.4314 0 30 0C46.5684 0 60 13.4314 60 30ZM31.0749 22.1473C28.1571 23.361 22.3253 25.8729 13.5797 29.6832C12.1595 30.2481 11.4156 30.8007 11.3479 31.3407C11.2334 32.2539 12.3768 32.6133 13.9336 33.1029C14.1454 33.1695 14.3649 33.2385 14.5898 33.3114C16.1215 33.8094 18.182 34.392 19.2532 34.4151C20.2248 34.4361 21.3093 34.0356 22.5066 33.2133C30.678 27.6975 34.896 24.9096 35.1606 24.8493C35.3475 24.807 35.6064 24.7536 35.7819 24.9096C35.9574 25.0656 35.94 25.3608 35.9214 25.44C35.8083 25.923 31.3203 30.0954 28.9977 32.2545C28.2738 32.9277 27.7602 33.405 27.6552 33.5142C27.42 33.7584 27.1803 33.9894 26.9499 34.2114C25.527 35.5833 24.4596 36.612 27.009 38.292C28.2342 39.0993 29.2143 39.7668 30.1923 40.4328C31.2603 41.1603 32.3256 41.8857 33.7041 42.7893C34.0551 43.0194 34.3905 43.2585 34.7172 43.4913C35.9601 44.3775 37.0767 45.1737 38.4564 45.0465C39.258 44.973 40.086 44.2191 40.5066 41.9709C41.5005 36.6579 43.4541 25.146 43.9056 20.4024C43.9452 19.9868 43.8954 19.4549 43.8555 19.2215C43.8153 18.988 43.7319 18.6553 43.4283 18.409C43.0689 18.1173 42.5142 18.0558 42.2658 18.06C41.1375 18.0801 39.4062 18.682 31.0749 22.1473Z" fill="#BFF300"/>
</svg>
