<svg width="50" height="44" viewBox="0 0 50 44" fill="none" xmlns="http://www.w3.org/2000/svg">
<path d="M47.655 18.0351C42.565 28.9076 30.2825 43.7026 22.52 43.7026C14.87 43.7026 13.7675 27.3851 9.5875 16.5301C7.53 11.1851 6.2025 12.4151 2.3475 15.1126L0 12.0776C5.62 7.13759 11.2475 1.39759 14.7 1.08009C18.5975 0.710093 20.9925 3.37009 21.8825 9.06259C23.07 16.5476 24.725 28.1651 27.61 28.1651C29.86 28.1651 35.4025 18.9501 35.69 15.6551C36.1975 10.8301 32.1375 10.6826 28.62 12.1876C34.19 -6.04991 57.355 -2.68741 47.655 18.0351Z" fill="#BFF300"/>
</svg>
